<svg xmlns="http://www.w3.org/2000/svg" width="747" height="220.614" viewBox="0 0 747 220.614">
  <g id="Group_5" data-name="Group 5" transform="translate(-585 -375.693)">
    <g id="Group_4" data-name="Group 4" transform="translate(375 52.424)">
      <g id="Group_2" data-name="Group 2" transform="translate(96.166 273.692)">
        <g id="ember-seeklogo.com" transform="translate(113.834 49.577)">
          <path id="Path_2" data-name="Path 2" d="M414.032,178.542s-2.692-9.469,7.334-27.758c9.933-18.2,17.732-8.262,17.732-8.262s8.541,9.284-1.207,23.116c-9.748,13.925-23.859,12.9-23.859,12.9m-76.589,13.183c-11.419,29.893-39.177,17.732-39.177,17.732s-3.156-10.676,5.849-40.662c9.005-29.893,30.172-18.2,30.172-18.2s14.575,11.233,3.156,41.126M316.74,66.489s17.267-45.025,21.445-23.116-36.206,87.08-36.206,87.08c.371-14.668,14.761-63.964,14.761-63.964M69.8,178.542c.743-28.965,19.681-41.59,26.272-35.278s4.178,19.96-8.262,28.5c-12.347,8.541-18.01,6.777-18.01,6.777m523.221-4.735c-.928-9.748-9.748-6.127-9.748-6.127s-14.111,10.955-26.551,9.748c-12.347-1.3-8.448-28.965-8.448-28.965s2.692-25.437-4.642-27.572-16.339,6.591-16.339,6.591-11.233,12.44-16.525,28.222l-1.485.464s1.671-27.758-.279-34.071c-1.485-3.156-14.854-2.878-16.989,2.692-2.228,5.57-12.9,44.468-13.647,60.807,0,0-20.888,17.732-39.177,20.7-18.289,2.878-22.652-8.541-22.652-8.541s49.667-13.832,47.9-53.473c-1.671-39.641-40.012-24.973-44.375-21.724-4.178,3.156-26.551,16.618-33.142,54.03-.186,1.3-.65,6.87-.65,6.87s-19.217,12.9-29.893,16.339c0,0,29.893-50.317-6.591-73.247-16.525-9.933-29.707,10.955-29.707,10.955S369.471,82.55,358.516,36.039c-5.2-22.095-16.246-24.509-26.458-20.888C316.648,21.278,310.8,30.191,310.8,30.191s-19.96,28.965-24.6,72.04-11.419,95.064-11.419,95.064-9.469,9.284-18.2,9.748-4.827-25.994-4.827-25.994,6.777-40.383,6.313-47.16-.928-10.49-9.005-12.9c-7.984-2.414-16.8,7.8-16.8,7.8s-23.116,35-25.066,40.383l-1.207,2.228-1.207-1.485s16.339-47.717.743-48.367c-15.6-.743-25.808,16.989-25.808,16.989s-17.732,29.707-18.474,33.049l-1.207-1.485s7.334-34.535,5.849-43.076-9.469-6.777-9.469-6.777-10.212-1.207-12.9,5.384-12.44,50.131-13.647,63.964c0,0-25.53,18.289-42.333,18.474-16.8.279-15.039-10.676-15.039-10.676s61.55-21.074,44.747-62.664c-7.52-10.676-16.339-14.018-28.686-13.833-12.44.279-27.015,7.8-37.041,30.172-4.735,10.676-6.684,20.8-6.684,28.5h0s-11.512,2.228-17.36-2.692c-5.849-4.827-9.191,0-9.191,0S8.062,191.446,18,195.345s25.344,7.52,25.344,7.52h0c1.393,6.313,5.57,16.618,17.732,25.808,18.2,13.833,53.288-2.135,53.288-2.135L128.748,218s.464,12.9,10.955,14.854,14.854-.186,33.049-44.375c10.676-22.652,11.419-21.445,11.419-21.445l1.207-.279s-8.262,43.261-5.106,54.959,16.989,10.49,16.989,10.49,7.52,2.692,13.647-18.753,17.732-43.818,17.732-43.818h1.485s-5.106,43.076,2.692,57.187,27.944,4.178,27.944,4.178,14.111-7.427,16.339-9.655c0,0,16.71,14.111,40.384,11.512,52.823-10.4,71.576-24.509,71.576-24.509s9.1,22.93,37.134,25.066c32.121,2.414,49.667-17.824,49.667-17.824s-.278,13.09,10.955,17.732,18.753-19.867,18.753-19.867l18.753-50.224h1.671s.928,32.121,19.5,37.506c18.66,5.292,42.7-13.275,42.7-13.275s5.849-3.9,4.827-13.647" transform="translate(-13.652 -13.775)"/>
        </g>
      </g>
    </g>
    <g id="download" transform="translate(1204.231 422.231)">
      <path id="Path_839" data-name="Path 839" d="M50.777,78.635C48.787,56.747,28.889,36.848,7,34.858L34.858,7c1.99,21.889,21.889,41.787,43.777,43.777Z" transform="translate(20.952 20.952)" fill="#ff957d"/>
      <circle id="Ellipse_1" data-name="Ellipse 1" cx="28" cy="28" r="28" transform="translate(-0.231 -0.231)" fill="#f04e98"/>
      <circle id="Ellipse_2" data-name="Ellipse 2" cx="28" cy="28" r="28" transform="translate(71.769 71.769)" fill="#fec514"/>
      <path id="Path_840" data-name="Path 840" d="M69.737,52.737A51.735,51.735,0,0,1,18,1H69.737Z" transform="translate(53.729 3.073)" fill="#00bfb3"/>
      <path id="Path_841" data-name="Path 841" d="M1,18A51.735,51.735,0,0,1,52.737,69.737H1Z" transform="translate(3.073 53.729)" fill="#1ba9f5"/>
    </g>
  </g>
</svg>
