<svg xmlns="http://www.w3.org/2000/svg" xmlns:xlink="http://www.w3.org/1999/xlink" width="500" height="500" viewBox="0 0 500 500">
  <defs>
    <clipPath id="clip-Artboard_1">
      <rect width="500" height="500"/>
    </clipPath>
  </defs>
  <g id="Artboard_1" data-name="Artboard – 1" clip-path="url(#clip-Artboard_1)">
    <g id="Group_13" data-name="Group 13" transform="translate(-1331.273 -410.818)">
      <g id="Rectangle_16" data-name="Rectangle 16" transform="translate(1593.544 722.604)" fill="rgba(255,255,255,0.06)" opacity="0.29">
        <path d="M16.852,4.307,212.761.171a7.973,7.973,0,0,1,3.11.547,7.392,7.392,0,0,1,2.49,1.622,7.132,7.132,0,0,1,1.618,2.455,7.326,7.326,0,0,1,.492,3.042l-3.916,82.14a8.353,8.353,0,0,1-.807,3.2,8.711,8.711,0,0,1-4.635,4.327,8.438,8.438,0,0,1-3.259.594L7.006,94.638a6.092,6.092,0,0,1-4.713-2.306A6.784,6.784,0,0,1,1.062,89.9,7.783,7.783,0,0,1,.84,86.955L9.2,11.651a8.219,8.219,0,0,1,.849-2.817,8.676,8.676,0,0,1,1.72-2.318,8.209,8.209,0,0,1,2.347-1.588A7.111,7.111,0,0,1,16.852,4.307Z" stroke="none"/>
        <path d="M 208.0084686279297 95.00589752197266 C 208.7214202880859 95.01731872558594 209.4087066650391 94.8836669921875 210.0408477783203 94.63227081298828 C 210.6731567382812 94.38078308105469 211.2501373291016 94.01152801513672 211.7422943115234 93.55198669433594 C 212.2344970703125 93.09237670898438 212.6417236328125 92.54256439208984 212.9345245361328 91.93006896972656 C 213.227294921875 91.31768798828125 213.4055786132812 90.64277648925781 213.4400634765625 89.93295288085938 L 217.4268341064453 7.891167163848877 C 217.4596710205078 7.21536922454834 217.3489379882812 6.573961734771729 217.1208801269531 5.992954254150391 C 216.8928833007812 5.412266254425049 216.5477294921875 4.891974449157715 216.1114959716797 4.457959175109863 C 215.6755218505859 4.024213314056396 215.1486511230469 3.676650524139404 214.5569000244141 3.441047191619873 C 213.9655456542969 3.205589532852173 213.3093414306641 3.081941604614258 212.6143493652344 3.095820665359497 L 16.55680274963379 7.010777473449707 C 15.96464538574219 7.022602081298828 15.38654518127441 7.160275936126709 14.84825420379639 7.398924350738525 C 14.31012344360352 7.63750171661377 13.81167411804199 7.977045059204102 13.3786506652832 8.392768859863281 C 12.94566345214844 8.808457374572754 12.57799816131592 9.300403594970703 12.301438331604 9.843887329101562 C 12.02483940124512 10.38744640350342 11.83930683135986 10.98268127441406 11.77069187164307 11.60490226745605 L 3.457318067550659 86.99181365966797 C 3.385534763336182 87.64276123046875 3.439570903778076 88.26538848876953 3.598720550537109 88.83383178710938 C 3.757953882217407 89.40260314941406 4.022426128387451 89.91722106933594 4.371414184570312 90.35173034667969 C 4.720608234405518 90.78648376464844 5.154430866241455 91.14108276367188 5.652093410491943 91.38944244384766 C 6.150049686431885 91.63795471191406 6.711901664733887 91.78011322021484 7.316767692565918 91.789794921875 L 208.0084686279297 95.00589752197266 M 207.8533782958984 98.10060882568359 L 7.006327629089355 94.63815307617188 C 6.036457061767578 94.62143707275391 5.136519908905029 94.39298248291016 4.33965539932251 93.99445343017578 C 3.543539762496948 93.5963134765625 2.850346565246582 93.02842712402344 2.292970180511475 92.33230590820312 C 1.736119031906128 91.63684844970703 1.314797878265381 90.81336212158203 1.061740159988403 89.90308380126953 C 0.8088908791542053 88.99356842041016 0.7239835262298584 87.99727630615234 0.8397071361541748 86.95514678955078 L 9.201874732971191 11.65128898620605 C 9.312471389770508 10.65532398223877 9.609167098999023 9.70344352722168 10.05097007751465 8.834683418273926 C 10.49267578125 7.966119289398193 11.07958316802979 7.180319786071777 11.77088260650635 6.516410350799561 C 12.46227550506592 5.85241174697876 13.25832557678223 5.31010103225708 14.11830043792725 4.928762435913086 C 14.97868537902832 4.547242164611816 15.90334224700928 4.326718330383301 16.85151863098145 4.306700706481934 L 212.7609252929688 0.1706997603178024 C 213.8739929199219 0.1472008228302002 214.9244689941406 0.3430701196193695 215.8711853027344 0.7177014350891113 C 216.8188018798828 1.092705607414246 217.6625518798828 1.646850824356079 218.3607788085938 2.339381456375122 C 219.0597381591797 3.03260350227356 219.6129302978516 3.864449739456177 219.9785766601562 4.793897151947021 C 220.3445281982422 5.724165916442871 220.5225830078125 6.752048969268799 220.4708862304688 7.836197853088379 L 216.5543975830078 89.97657775878906 C 216.5000915527344 91.11566162109375 216.2155151367188 92.19807434082031 215.7473449707031 93.17981719970703 C 215.279052734375 94.16180419921875 214.6272583007812 95.04267120361328 213.8388519287109 95.77853393554688 C 213.0505828857422 96.51430511474609 212.1260528564453 97.10482025146484 211.1122894287109 97.50642395019531 C 210.0990753173828 97.90779876708984 208.9970855712891 98.12033081054688 207.8533782958984 98.10060882568359 Z" stroke="none" fill="#707070"/>
      </g>
      <g id="Group_8" data-name="Group 8" transform="translate(1627.851 743.907)">
        <path id="Rectangle_7" data-name="Rectangle 7" d="M13.374,1.233,138.51.091a9.581,9.581,0,0,1,3.809.735,9.031,9.031,0,0,1,4.987,5.192,9.436,9.436,0,0,1,.563,3.838L146.3,37.242a10.356,10.356,0,0,1-1.017,3.91,10.852,10.852,0,0,1-5.666,5.316,10.249,10.249,0,0,1-3.951.755L9,46.008a8.1,8.1,0,0,1-3.436-.783,7.919,7.919,0,0,1-2.655-2.067,8.5,8.5,0,0,1-1.62-3.036,9.562,9.562,0,0,1-.333-3.694L3.544,10.612a10.4,10.4,0,0,1,1.062-3.63,10.851,10.851,0,0,1,2.2-2.971A10.325,10.325,0,0,1,9.831,1.995,9.143,9.143,0,0,1,13.374,1.233Z" transform="translate(0 5.517)" fill="#0d5981"/>
        <path id="Polygon_1" data-name="Polygon 1" d="M5.529.057l4.1,7.457L0,7.6Z" transform="translate(11.563)" fill="#0d5981"/>
        <path id="Rectangle_8" data-name="Rectangle 8" d="M.651.629,119.619,0l-.434,7.061L0,7.357Z" transform="translate(14.904 15.3)" fill="#1baaf5"/>
        <path id="Rectangle_9" data-name="Rectangle 9" d="M.573.128,119.867,0l-.382,6.216L0,6.049Z" transform="translate(14.004 25.903)" fill="#1baaf5"/>
        <path id="Rectangle_10" data-name="Rectangle 10" d="M.576,0l119.6.337-.384,6.252L0,5.954Z" transform="translate(13.099 35.345)" fill="#1baaf5"/>
      </g>
      <g id="Group_17" data-name="Group 17" transform="translate(1587.178 510.858)">
        <g id="Rectangle_14" data-name="Rectangle 14" fill="rgba(255,255,255,0.06)" opacity="0.29">
          <path d="M8.08.032,97.485.4a9.046,9.046,0,0,1,3.023.532,8.6,8.6,0,0,1,2.536,1.428,7.413,7.413,0,0,1,1.79,2.114,6.183,6.183,0,0,1,.782,2.592L110.567,79.2a6.52,6.52,0,0,1-.44,2.862,6.756,6.756,0,0,1-1.578,2.35,7.552,7.552,0,0,1-2.475,1.593,8.5,8.5,0,0,1-3.126.593l-94.677.327a8.99,8.99,0,0,1-3.218-.576,8.333,8.333,0,0,1-2.626-1.591A7.41,7.41,0,0,1,.663,82.4,6.741,6.741,0,0,1,.024,79.51L.252,6.693a5.868,5.868,0,0,1,.624-2.61,6.734,6.734,0,0,1,1.682-2.12A7.983,7.983,0,0,1,5.042.543,8.925,8.925,0,0,1,8.08.032Z" stroke="none"/>
          <path d="M 102.7727432250977 83.82432556152344 C 103.4718933105469 83.82206726074219 104.1300888061523 83.69057464599609 104.7213668823242 83.45489501953125 C 105.3124160766602 83.21931457519531 105.8364639282227 82.87970733642578 106.2677383422852 82.46117401123047 C 106.6987609863281 82.04291534423828 107.0370407104492 81.54590606689453 107.2569580078125 80.99521636962891 C 107.4767074584961 80.4449462890625 107.5782623291016 79.84114074707031 107.5361099243164 79.20874786376953 L 102.7257537841797 7.05497407913208 C 102.6874847412109 6.480907440185547 102.5160446166992 5.93352746963501 102.2390518188477 5.435309886932373 C 101.9622192382812 4.937407970428467 101.5799331665039 4.488521575927734 101.1196899414062 4.111071586608887 C 100.6596527099609 3.733787059783936 100.1215896606445 3.427790880203247 99.53292083740234 3.215495586395264 C 98.94435119628906 3.003239393234253 98.30500793457031 2.884590864181519 97.64218139648438 2.882009744644165 L 8.085541725158691 2.533267498016357 C 7.412174701690674 2.530645847320557 6.770273208618164 2.645244121551514 6.186087131500244 2.854664325714111 C 5.601671695709229 3.064166069030762 5.074878215789795 3.368613719940186 4.632089614868164 3.745627641677856 C 4.189036846160889 4.122866630554199 3.830012559890747 4.572820663452148 3.581537008285522 5.073071479797363 C 3.332879543304443 5.573684692382812 3.194906711578369 6.124715328216553 3.194251537322998 6.703654289245605 L 3.111839532852173 79.50128173828125 C 3.111116886138916 80.13960266113281 3.254817962646484 80.74823760986328 3.515281915664673 81.30210876464844 C 3.775922060012817 81.85636138916016 4.153436183929443 82.35568237304688 4.620021820068359 82.77493286132812 C 5.086823463439941 83.19435882568359 5.64267110824585 83.53356170654297 6.259620666503906 83.76735687255859 C 6.876692771911621 84.00119018554688 7.554710865020752 84.1295166015625 8.265612602233887 84.12724304199219 L 102.7727432250977 83.82432556152344 M 102.9485778808594 86.598388671875 L 8.271786689758301 86.92490386962891 C 7.130424976348877 86.92884063720703 6.042715549468994 86.72343444824219 5.053441524505615 86.34870910644531 C 4.064479351043701 85.97409057617188 3.174355268478394 85.43046569824219 2.427536964416504 84.75794219970703 C 1.681273579597473 84.0859375 1.078388810157776 83.28549957275391 0.6629918813705444 82.39677429199219 C 0.2480435520410538 81.50901794433594 0.02029996551573277 80.53341674804688 0.02351042442023754 79.50994110107422 L 0.2519253194332123 6.693268299102783 C 0.2548356652259827 5.76547384262085 0.4769405424594879 4.883495807647705 0.8757422566413879 4.082983016967773 C 1.274080395698547 3.283400774002075 1.848767399787903 2.564968824386597 2.557601451873779 1.96311628818512 C 3.2657630443573 1.361834764480591 4.108007431030273 0.8767500519752502 5.042478084564209 0.5431860089302063 C 5.976365089416504 0.2098299264907837 7.002720355987549 0.02767851203680038 8.080022811889648 0.03210806846618652 L 97.48484039306641 0.3997150063514709 C 98.54525756835938 0.4040751457214355 99.56728363037109 0.5931315422058105 100.5078048706055 0.9313643574714661 C 101.4485855102539 1.269697189331055 102.3082809448242 1.757444620132446 103.0434722900391 2.359212160110474 C 103.7791519165039 2.961398839950562 104.3904647827148 3.677982091903687 104.8337097167969 4.473543643951416 C 105.2773818969727 5.269911766052246 105.5527877807617 6.145642757415771 105.6158981323242 7.065176010131836 L 110.5669784545898 79.20025634765625 C 110.6365356445312 80.21367645263672 110.4764938354492 81.18103790283203 110.1271286010742 82.06261444091797 C 109.7773208618164 82.94526672363281 109.2378158569336 83.74177551269531 108.5491256713867 84.41214752197266 C 107.8597717285156 85.08320617675781 107.0211486816406 85.627685546875 106.0741958618164 86.00547790527344 C 105.1266479492188 86.38352203369141 104.0709991455078 86.59452819824219 102.9485778808594 86.598388671875 Z" stroke="none" fill="#707070"/>
        </g>
        <path id="Ellipse_7" data-name="Ellipse 7" d="M11.8.031a13.656,13.656,0,0,1,4.628.817,12.921,12.921,0,0,1,3.862,2.208A11.238,11.238,0,0,1,23,6.333a9.587,9.587,0,0,1,1.153,4.027,8.973,8.973,0,0,1-.708,4.046,9.713,9.713,0,0,1-2.369,3.319A11.329,11.329,0,0,1,17.4,19.969a12.972,12.972,0,0,1-4.609.822A13.654,13.654,0,0,1,8.1,19.961a12.9,12.9,0,0,1-3.9-2.255,11.189,11.189,0,0,1-2.7-3.331,9.548,9.548,0,0,1-1.1-4.057,8.976,8.976,0,0,1,.772-4.031,9.755,9.755,0,0,1,2.4-3.271A11.374,11.374,0,0,1,7.246.824,12.99,12.99,0,0,1,11.8.031Z" transform="translate(63.573 16.769)" fill="#e42682"/>
      </g>
      <g id="Group_23" data-name="Group 23" transform="translate(1349.44 726.177)">
        <g id="Rectangle_13" data-name="Rectangle 13" fill="rgba(255,255,255,0.06)" opacity="0.29">
          <path d="M12.832,0H218.905a8.534,8.534,0,0,1,3.07.569,8.354,8.354,0,0,1,2.554,1.553,7.721,7.721,0,0,1,1.778,2.308,7,7,0,0,1,.738,2.832l3.313,76.862a7.309,7.309,0,0,1-2.145,5.518A7.726,7.726,0,0,1,225.7,91.32a8.2,8.2,0,0,1-3.144.616H8.143a8.151,8.151,0,0,1-3.137-.616,7.607,7.607,0,0,1-2.5-1.677A7.231,7.231,0,0,1,.425,84.125L4.61,7.263a7.06,7.06,0,0,1,.77-2.832,7.848,7.848,0,0,1,1.8-2.308A8.48,8.48,0,0,1,9.756.569,8.586,8.586,0,0,1,12.832,0Z" stroke="none"/>
          <path d="M 222.4350433349609 89.00080871582031 C 223.1357421875 89.00080871582031 223.7982482910156 88.86381530761719 224.3961029052734 88.61628723144531 C 224.9938659667969 88.36882781982422 225.5268402099609 88.01091003417969 225.9686431884766 87.56899261474609 C 226.4102935791016 87.12725067138672 226.7607879638672 86.60164642333984 226.9938049316406 86.01863861083984 C 227.2267150878906 85.4359130859375 227.34228515625 84.7958984375 227.314208984375 84.12495422363281 L 224.1004943847656 7.262596130371094 C 224.0742645263672 6.635052680969238 223.9117431640625 6.037078857421875 223.6405792236328 5.493195533752441 C 223.3695526123047 4.94957160949707 222.9899291992188 4.459933757781982 222.5292510986328 4.048747539520264 C 222.0687408447266 3.637709856033325 221.5272064208984 3.305010080337524 220.9320220947266 3.075093030929565 C 220.3369598388672 2.84522271156311 219.688232421875 2.718051910400391 219.0131225585938 2.718051910400391 L 12.69359874725342 2.718051910400391 C 12.01849746704102 2.718051910400391 11.36830139160156 2.84522271156311 10.77064418792725 3.075093030929565 C 10.17286491394043 3.305010080337524 9.627535820007324 3.637709856033325 9.162373542785645 4.048747539520264 C 8.697041511535645 4.459933757781982 8.311869621276855 4.94957160949707 8.034662246704102 5.493195533752441 C 7.75732421875 6.037078857421875 7.588028907775879 6.635052680969238 7.554671287536621 7.262596130371094 L 3.468999147415161 84.12495422363281 C 3.433335304260254 84.7958984375 3.541614770889282 85.4359130859375 3.767916917800903 86.01863861083984 C 3.994330883026123 86.60164642333984 4.33886194229126 87.12725067138672 4.775500774383545 87.56899261474609 C 5.212303638458252 88.01091003417969 5.741219520568848 88.36882781982422 6.336143493652344 88.61628723144531 C 6.931192874908447 88.86381530761719 7.592165946960449 89.00080871582031 8.292863845825195 89.00080871582031 L 222.4350433349609 89.00080871582031 M 222.5514221191406 91.93600463867188 L 8.143156051635742 91.93600463867188 C 7.018845558166504 91.93600463867188 5.959141731262207 91.71673583984375 5.005771160125732 91.3203125 C 4.052719116210938 90.92401123046875 3.206214189529419 90.35079193115234 2.507745504379272 89.64284515380859 C 1.809695243835449 88.93533325195312 1.259661555290222 88.09341430664062 0.8988845944404602 87.15923309326172 C 0.5383934378623962 86.22577667236328 0.3669163584709167 85.20036315917969 0.4254688024520874 84.12495422363281 L 4.610387802124023 7.262596130371094 C 4.665134906768799 6.257081031799316 4.93675708770752 5.299987316131592 5.380841732025146 4.430158138275146 C 5.824588298797607 3.560994625091553 6.440603256225586 2.778830766677856 7.184700012207031 2.122375965118408 C 7.928367137908936 1.466299891471863 8.800132751464844 0.9356428980827332 9.756045341491699 0.5690643191337585 C 10.71165180206299 0.2026039063930511 11.75162410736084 1.016280748444842e-05 12.83222770690918 1.016280748444842e-05 L 218.9053192138672 1.016280748444842e-05 C 219.9859008789062 1.016280748444842e-05 221.0235595703125 0.2026039212942123 221.9750213623047 0.5690643787384033 C 222.9267730712891 0.9356431365013123 223.7925262451172 1.466299891471863 224.5287475585938 2.122375965118408 C 225.265380859375 2.778830766677856 225.87255859375 3.560994625091553 226.3064270019531 4.430158138275146 C 226.7406768798828 5.299987316131592 227.0014343261719 6.257081031799316 227.0447692871094 7.262596130371094 L 230.3577423095703 84.12495422363281 C 230.4040832519531 85.20036315917969 230.2209777832031 86.22577667236328 229.8498992919922 87.15923309326172 C 229.4785308837891 88.09341430664062 228.9189453125 88.93533325195312 228.2128448486328 89.64284515380859 C 227.50634765625 90.35079193115234 226.6533508300781 90.92401123046875 225.69580078125 91.3203125 C 224.7379302978516 91.71673583984375 223.6757202148438 91.93600463867188 222.5514221191406 91.93600463867188 Z" stroke="none" fill="#707070"/>
        </g>
        <g id="Group_22" data-name="Group 22" transform="translate(21.83 33.598)">
          <g id="Group_9" data-name="Group 9" transform="translate(0 10.158)">
            <path id="Path_10" data-name="Path 10" d="M5.193,0h177.66a5.866,5.866,0,0,1,1.8.279,5.067,5.067,0,0,1,1.488.761,3.86,3.86,0,0,1,1.025,1.13,2.943,2.943,0,0,1,.41,1.385l.2,5.8a2.824,2.824,0,0,1-.315,1.393,3.514,3.514,0,0,1-.951,1.139,4.68,4.68,0,0,1-1.444.769,5.693,5.693,0,0,1-1.791.282H4.625a5.664,5.664,0,0,1-1.788-.282A4.616,4.616,0,0,1,1.4,11.886a3.458,3.458,0,0,1-.939-1.139,2.805,2.805,0,0,1-.3-1.393l.266-5.8A2.97,2.97,0,0,1,.856,2.17,3.923,3.923,0,0,1,1.894,1.04a5.136,5.136,0,0,1,1.5-.761A5.9,5.9,0,0,1,5.193,0Z" fill="#d9ac1d"/>
            <path id="Rectangle_6" data-name="Rectangle 6" d="M7.416,0H95.168L95.1,12.937H6.861a6.993,6.993,0,0,1-2.648-.511A6.5,6.5,0,0,1,2.1,11.033,6.1,6.1,0,0,1,.72,8.971,6,6,0,0,1,.3,6.45,6.326,6.326,0,0,1,.95,3.935a6.88,6.88,0,0,1,1.557-2.05A7.323,7.323,0,0,1,7.416,0Z" transform="translate(0.032)" fill="#fec512"/>
          </g>
          <path id="Rectangle_15" data-name="Rectangle 15" d="M.283,0H61.651l-.119,6.173H0Z" transform="translate(0.808)" fill="#d9d9d9"/>
        </g>
      </g>
      <g id="Group_19" data-name="Group 19" transform="translate(1349.481 506.942)">
        <g id="Rectangle_11" data-name="Rectangle 11" fill="rgba(255,255,255,0.06)" opacity="0.29">
          <path d="M10.335.045l205.9,1.145a8.4,8.4,0,0,1,3.015.58,8.523,8.523,0,0,1,2.538,1.551,8.02,8.02,0,0,1,1.8,2.292,7.188,7.188,0,0,1,.8,2.805l5.559,76.869a7.267,7.267,0,0,1-.405,3,7.058,7.058,0,0,1-1.522,2.464,7.269,7.269,0,0,1-2.405,1.671,7.792,7.792,0,0,1-3.05.623L8.337,94.031a8.529,8.529,0,0,1-3.229-.61A8.072,8.072,0,0,1,2.5,91.732,7.623,7.623,0,0,1,.774,89.22,7.426,7.426,0,0,1,.2,86.144L2.148,7.358a6.921,6.921,0,0,1,.7-2.867A7.568,7.568,0,0,1,4.626,2.163,8.293,8.293,0,0,1,7.208.6,8.685,8.685,0,0,1,10.335.045Z" stroke="none"/>
          <path d="M 222.3744964599609 90.14319610595703 C 223.0584259033203 90.14028167724609 223.7009429931641 90.00192260742188 224.2770080566406 89.75441741943359 C 224.8529052734375 89.50701141357422 225.3622436523438 89.15056610107422 225.7801513671875 88.71140289306641 C 226.1978759765625 88.27245330810547 226.5241851806641 87.75091552734375 226.7342071533203 87.17305755615234 C 226.9441223144531 86.59549713134766 227.0378723144531 85.96170043945312 226.9906921386719 85.2978515625 L 221.52587890625 8.404202461242676 C 221.4817504882812 7.783143043518066 221.3054809570312 7.190687656402588 221.0247955322266 6.651206016540527 C 220.7442474365234 6.111950874328613 220.3592376708984 5.625547409057617 219.8974151611328 5.216336250305176 C 219.4357147216797 4.807232856750488 218.8971557617188 4.475211143493652 218.3092041015625 4.244612693786621 C 217.7212524414062 4.014030456542969 217.0838623046875 3.884810209274292 216.4243927001953 3.881338119506836 L 10.27690505981445 2.795949697494507 C 9.58696174621582 2.792317390441895 8.926264762878418 2.91760516166687 8.322328567504883 3.147204637527466 C 7.718190670013428 3.376879930496216 7.170755386352539 3.71097207069397 6.707638263702393 4.124877452850342 C 6.244306564331055 4.538974285125732 5.865324020385742 5.033000469207764 5.598408222198486 5.5823073387146 C 5.331348896026611 6.13191032409668 5.176464080810547 6.736880302429199 5.161552429199219 7.372493743896484 L 3.313776254653931 86.13197326660156 C 3.297810792922974 86.81248474121094 3.428289651870728 87.46107482910156 3.677851915359497 88.05107116699219 C 3.927525281906128 88.64132690429688 4.296350002288818 89.1728515625 4.756864070892334 89.61891937255859 C 5.217504978179932 90.06510925292969 5.769803047180176 90.42572784423828 6.386197566986084 90.67403411865234 C 7.002642154693604 90.92237091064453 7.683059692382812 91.05833435058594 8.39981746673584 91.05529022216797 L 222.3744964599609 90.14319610595703 M 222.5749206542969 93.04879760742188 L 8.336535453796387 94.03080749511719 C 7.186378479003906 94.03608703613281 6.095337867736816 93.81876373291016 5.107456684112549 93.42128753662109 C 4.119698047637939 93.02385711669922 3.235413551330566 92.44644927978516 2.498447179794312 91.73165893554688 C 1.761806607246399 91.01717376708984 1.172569155693054 90.16562652587891 0.7743323445320129 89.21958160400391 C 0.3763780891895294 88.27421569824219 0.1692496985197067 87.23473358154297 0.1962855905294418 86.14360046386719 L 2.148435592651367 7.358126163482666 C 2.173678636550903 6.339357376098633 2.422413110733032 5.370776653289795 2.850335597991943 4.491581916809082 C 3.27789044380188 3.613141536712646 3.884358167648315 2.823867082595825 4.625645160675049 2.16276478767395 C 5.366383075714111 1.502150297164917 6.241861820220947 0.9694103598594666 7.208244323730469 0.6034413576126099 C 8.174111366271973 0.2376670390367508 9.231029510498047 0.03839472681283951 10.33542156219482 0.04453756287693977 L 216.2387237548828 1.189810156822205 C 217.2942962646484 1.19568133354187 218.3137054443359 1.401849269866943 219.2535400390625 1.769688248634338 C 220.1934814453125 2.137569665908813 221.0541687011719 2.66727876663208 221.7919769287109 3.320307731628418 C 222.5301055908203 3.973607778549194 223.1455078125 4.750510215759277 223.5943756103516 5.612514019012451 C 224.0435791015625 6.47509241104126 224.3261566162109 7.423080921173096 224.3981170654297 8.417898178100586 L 229.9575653076172 85.28678131103516 C 230.0345001220703 86.35048675537109 229.8863220214844 87.36558532714844 229.55224609375 88.29048156738281 C 229.2178955078125 89.21619415283203 228.6973266601562 90.05146789550781 228.0298919677734 90.75446319580078 C 227.3619842529297 91.45797729492188 226.547119140625 92.02893829345703 225.6248779296875 92.42534637451172 C 224.7021331787109 92.82196807861328 223.6722106933594 93.04376220703125 222.5749206542969 93.04879760742188 Z" stroke="none" fill="#707070"/>
        </g>
        <g id="Group_18" data-name="Group 18" transform="translate(30.072 27.504)">
          <path id="Rectangle_1" data-name="Rectangle 1" d="M10.6.026,142.551.37a10.561,10.561,0,0,1,7.041,2.719,10,10,0,0,1,2.248,2.943,9.16,9.16,0,0,1,.961,3.609l1.335,24.941a8.838,8.838,0,0,1-2.545,6.731,9.324,9.324,0,0,1-3.05,2.053,9.975,9.975,0,0,1-3.832.76l-134.452.3a10.637,10.637,0,0,1-3.982-.755,10.145,10.145,0,0,1-3.236-2.073A9.515,9.515,0,0,1,.877,38.52a9.094,9.094,0,0,1-.759-3.759L.428,9.4a8.9,8.9,0,0,1,.838-3.666,9.527,9.527,0,0,1,2.2-2.981,10.266,10.266,0,0,1,3.222-2A10.713,10.713,0,0,1,10.6.026Z" fill="#028078"/>
          <path id="Ellipse_6" data-name="Ellipse 6" d="M6.425.013A6.3,6.3,0,0,1,12.71,6.346,6.359,6.359,0,0,1,6.349,12.7,6.3,6.3,0,0,1,.055,6.329,6.359,6.359,0,0,1,6.425.013Z" transform="translate(8.503 5.059)" fill="#02bfb3"/>
          <path id="Rectangle_2" data-name="Rectangle 2" d="M0,0,61.695.1l.155,5.871L0,5.91Z" transform="translate(28.429 8.464)" fill="#02bfb3"/>
          <path id="Rectangle_3" data-name="Rectangle 3" d="M0,0,114.288.068l.33,6.732L0,6.816Z" transform="translate(28.427 18.614)" fill="#02bfb3"/>
          <path id="Rectangle_4" data-name="Rectangle 4" d="M0,.055,89.953,0l.261,6.814L0,6.937Z" transform="translate(28.426 29.656)" fill="#02bfb3"/>
        </g>
      </g>
      <g id="Group_16" data-name="Group 16" transform="translate(1635.785 610.749)">
        <g id="Rectangle_18" data-name="Rectangle 18" fill="rgba(255,255,255,0.06)" opacity="0.29">
          <path d="M6.832,4.427,166.675.212a7.62,7.62,0,0,1,3.119.572,7.758,7.758,0,0,1,2.554,1.72,8.1,8.1,0,0,1,1.725,2.609,8.462,8.462,0,0,1,.633,3.234v85.18a8.489,8.489,0,0,1-.633,3.237,8.161,8.161,0,0,1-1.725,2.618,7.817,7.817,0,0,1-2.554,1.734,7.643,7.643,0,0,1-3.119.589L6.832,98.369a6.27,6.27,0,0,1-2.665-.66A7.059,7.059,0,0,1,2,96.019,8,8,0,0,1,.535,93.551a8.568,8.568,0,0,1-.535-3V12.277a8.592,8.592,0,0,1,.535-3A8.06,8.06,0,0,1,2,6.8,7.114,7.114,0,0,1,4.167,5.1,6.294,6.294,0,0,1,6.832,4.427Z" stroke="none"/>
          <path d="M 166.6749725341797 98.5872802734375 C 167.3646087646484 98.60067749023438 168.0224914550781 98.4676513671875 168.6215362548828 98.21565246582031 C 169.2209167480469 97.96353149414062 169.7612762451172 97.59233093261719 170.2154693603516 97.12962341308594 C 170.6698608398438 96.66672515869141 171.0379180908203 96.11231994628906 171.2923736572266 95.49405670166016 C 171.5469055175781 94.87566375732422 171.6877593994141 94.19352722167969 171.6877593994141 93.47544097900391 L 171.6877593994141 8.414379119873047 C 171.6877593994141 7.6962890625 171.5469055175781 7.01492977142334 171.2923736572266 6.397932052612305 C 171.0379180908203 5.781080722808838 170.6698608398438 5.228689670562744 170.2154693603516 4.768284320831299 C 169.7612762451172 4.3080735206604 169.2209167480469 3.939843893051147 168.6215362548828 3.691007614135742 C 168.0224914550781 3.442309141159058 167.3646087646484 3.312898635864258 166.6749725341797 3.330083608627319 L 6.831762313842773 7.313180923461914 C 6.241310119628906 7.32789421081543 5.678704738616943 7.476706504821777 5.167009830474854 7.732969760894775 C 4.655578136444092 7.989099979400635 4.194952964782715 8.352597236633301 3.808142423629761 8.796902656555176 C 3.42148232460022 9.241036415100098 3.108522653579712 9.76598072052002 2.892251014709473 10.34527683258057 C 2.676027297973633 10.92444896697998 2.556407451629639 11.55806255340576 2.556407451629639 12.21974658966064 L 2.556407451629639 90.59932708740234 C 2.556407451629639 91.26100921630859 2.676027297973633 91.89396667480469 2.892251014709473 92.47194671630859 C 3.108522653579712 93.05006408691406 3.42148232460022 93.57328796386719 3.808142423629761 94.01529693603516 C 4.194952964782715 94.45747375488281 4.655578136444092 94.81844329833984 5.167009830474854 95.07175445556641 C 5.678704738616943 95.32521820068359 6.241310119628906 95.47093200683594 6.831762313842773 95.48240661621094 L 166.6749725341797 98.5872802734375 M 166.6749725341797 101.7055282592773 L 6.831762313842773 98.36862945556641 C 5.885689735412598 98.34886932373047 4.985237598419189 98.11490631103516 4.166939735412598 97.70897674560547 C 3.34931492805481 97.30336761474609 2.613574504852295 96.72599792480469 1.996113061904907 96.01888275146484 C 1.379035711288452 95.31221008300781 0.8799433708190918 94.47578430175781 0.5351802706718445 93.55133056640625 C 0.19053715467453 92.62722778320312 8.794779205345549e-06 91.61488342285156 8.794779205345549e-06 90.55585479736328 L 8.794779205345549e-06 12.27726459503174 C 8.794779205345549e-06 11.21823406219482 0.1905371695756912 10.20484924316406 0.5351802706718445 9.278841972351074 C 0.8799433708190918 8.352514266967773 1.379035711288452 7.513337135314941 1.996113061904907 6.803269386291504 C 2.613574504852295 6.092759609222412 3.34931492805481 5.511352062225342 4.166939735412598 5.101253986358643 C 4.985237598419189 4.690817832946777 5.885689735412598 4.451905250549316 6.831762313842773 4.426957130432129 L 166.6749725341797 0.2118347436189651 C 167.7803802490234 0.1826854050159454 168.8344879150391 0.3878019452095032 169.7941589355469 0.7839874029159546 C 170.7546997070312 1.180526733398438 171.6204528808594 1.76840603351593 172.3480682373047 2.504164457321167 C 173.0761566162109 3.240420818328857 173.6657257080078 4.124566555023193 174.0733489990234 5.112850666046143 C 174.4811401367188 6.101509094238281 174.7067108154297 7.194052219390869 174.7067108154297 8.346455574035645 L 174.7067108154297 93.52677917480469 C 174.7067108154297 94.67917633056641 174.4811401367188 95.77296447753906 174.0733489990234 96.76386260986328 C 173.6657257080078 97.75440216064453 173.0761566162109 98.64177703857422 172.3480682373047 99.38204193115234 C 171.6204528808594 100.1217803955078 170.7546997070312 100.7144165039062 169.7941589355469 101.1162338256836 C 168.8344879150391 101.517692565918 167.7803802490234 101.7286148071289 166.6749725341797 101.7055282592773 Z" stroke="none" fill="#707070"/>
        </g>
        <g id="Group_11" data-name="Group 11" transform="translate(43.949 29.603)">
          <path id="Ellipse" d="M17.677.233a15.837,15.837,0,0,1,6.965,1.516,17.812,17.812,0,0,1,5.723,4.323,20.659,20.659,0,0,1,3.876,6.488,23.126,23.126,0,0,1,0,15.985,20.819,20.819,0,0,1-3.876,6.511,17.963,17.963,0,0,1-5.723,4.357,15.85,15.85,0,0,1-13.882-.086,17.91,17.91,0,0,1-5.614-4.373,20.731,20.731,0,0,1-3.768-6.438,23.133,23.133,0,0,1,0-15.73A20.89,20.89,0,0,1,5.146,6.324,18.063,18.063,0,0,1,10.76,1.917,15.944,15.944,0,0,1,17.677.233Z" transform="translate(0 0.6)" fill="#07c"/>
          <path id="Rectangle_20" data-name="Rectangle 20" d="M0,.578,44.727,0V41.629L0,41.316Z" transform="translate(17.677 0.254)" fill="#07c"/>
          <path id="Ellipse-2" data-name="Ellipse" d="M18.88.249a17.566,17.566,0,0,1,7.442,1.546,18.972,18.972,0,0,1,6.117,4.416,20.948,20.948,0,0,1,4.144,6.632,22.677,22.677,0,0,1,0,16.345,21.114,21.114,0,0,1-4.144,6.657A19.131,19.131,0,0,1,26.322,40.3,17.627,17.627,0,0,1,11.49,40.2a19.044,19.044,0,0,1-6-4.47,21,21,0,0,1-4.023-6.579,22.682,22.682,0,0,1,0-16.072,21.165,21.165,0,0,1,4.023-6.6,19.2,19.2,0,0,1,6-4.506A17.665,17.665,0,0,1,18.88.249Z" transform="translate(43.948)" fill="#fff"/>
          <g id="Glyph_check" data-name="Glyph / check" transform="translate(10.161 13.147)">
            <path id="Vector" d="M8.226,16.131a.847.847,0,0,1-.175-.019.863.863,0,0,1-.17-.055.9.9,0,0,1-.16-.092.954.954,0,0,1-.144-.128L.266,7.845a1.009,1.009,0,0,1-.2-.33,1.094,1.094,0,0,1,0-.752,1.018,1.018,0,0,1,.2-.332.916.916,0,0,1,.3-.22.842.842,0,0,1,.686,0,.907.907,0,0,1,.3.218l6.669,7.285L20.5.306A.937.937,0,0,1,20.8.083a.867.867,0,0,1,.7,0A.921.921,0,0,1,21.812.3a1.013,1.013,0,0,1,.2.333,1.1,1.1,0,0,1,0,.76,1.03,1.03,0,0,1-.2.336L8.876,15.839a.953.953,0,0,1-.144.128.9.9,0,0,1-.16.091.863.863,0,0,1-.17.055A.847.847,0,0,1,8.226,16.131Z" fill="#fff"/>
          </g>
        </g>
      </g>
      <g id="Group_21" data-name="Group 21" transform="translate(1350.641 615.749)">
        <g id="Rectangle_19" data-name="Rectangle 19" fill="rgba(255,255,255,0.06)" opacity="0.289">
          <path d="M7.98.08l126.3,1.269a8.246,8.246,0,0,1,2.991.6,8.523,8.523,0,0,1,2.522,1.572,8.162,8.162,0,0,1,1.8,2.315,7.38,7.38,0,0,1,.81,2.827l5.81,76.372a7.383,7.383,0,0,1-.385,3.012,7.078,7.078,0,0,1-1.491,2.474,7.162,7.162,0,0,1-2.366,1.683,7.593,7.593,0,0,1-3.01.636L9.977,93.921a8.566,8.566,0,0,1-3.234-.6,8.447,8.447,0,0,1-2.665-1.69A8.1,8.1,0,0,1,2.256,89.11a7.721,7.721,0,0,1-.706-3.092L.134,7.438A6.871,6.871,0,0,1,.711,4.543,7.154,7.154,0,0,1,2.381,2.2,7.749,7.749,0,0,1,4.888.631,8.338,8.338,0,0,1,7.98.08Z" stroke="none"/>
          <path d="M 140.7410430908203 89.92566680908203 C 141.4167938232422 89.92047882080078 142.0508575439453 89.77961730957031 142.6186676025391 89.52957153320312 C 143.186279296875 89.27963256835938 143.6876068115234 88.92062377929688 144.0981292724609 88.47899627685547 C 144.5084381103516 88.03761291503906 144.8280944824219 87.51374816894531 145.0326385498047 86.93378448486328 C 145.237060546875 86.3541259765625 145.3265075683594 85.71844482421875 145.2766571044922 85.05303192138672 L 139.5520477294922 8.636486053466797 C 139.5051879882812 8.01104736328125 139.3276519775391 7.413882255554199 139.0469512939453 6.869617938995361 C 138.7663116455078 6.325541973114014 138.3825531005859 5.834238529205322 137.9230346679688 5.420319080352783 C 137.463623046875 5.006470203399658 136.9283599853516 4.669900417327881 136.3446350097656 4.435248374938965 C 135.7608947753906 4.200586318969727 135.1285552978516 4.067800045013428 134.4749145507812 4.061587333679199 L 8.038860321044922 2.859747171401978 C 7.351563453674316 2.853214025497437 6.698824882507324 2.97705864906311 6.107019424438477 3.206547021865845 C 5.514962196350098 3.436133146286011 4.983813762664795 3.77148175239563 4.540059089660645 4.187847137451172 C 4.09607458114624 4.604430675506592 3.739545822143555 5.102141380310059 3.497056245803833 5.656172752380371 C 3.254433393478394 6.210513591766357 3.125975131988525 6.821236610412598 3.13833212852478 7.463447093963623 L 4.649394989013672 85.99659729003906 C 4.662564277648926 86.6810302734375 4.819962978363037 87.33289337158203 5.093236446380615 87.92543792724609 C 5.366610050201416 88.51818084716797 5.755892753601074 89.05145263671875 6.232626914978027 89.49848937988281 C 6.70944356918335 89.94557189941406 7.273642063140869 90.30628204345703 7.896681785583496 90.55385589599609 C 8.519695281982422 90.80143737792969 9.201404571533203 90.93582153320312 9.913209915161133 90.93035125732422 L 140.7410430908203 89.92566680908203 M 140.9536285400391 92.83848571777344 L 9.976853370666504 93.92076873779297 C 8.834705352783203 93.93021392822266 7.741585731506348 93.71572113037109 6.743083477020264 93.31974029541016 C 5.744514942169189 92.92371368408203 4.840938091278076 92.34634399414062 4.077794551849365 91.63018035888672 C 3.314862728118896 90.91422271728516 2.692538499832153 90.05982971191406 2.25605034828186 89.10965728759766 C 1.819819927215576 88.16007232666016 1.569335341453552 87.11509704589844 1.549561023712158 86.01740264892578 L 0.1339954286813736 7.437612056732178 C 0.1154475137591362 6.407994747161865 0.3219114243984222 5.429935932159424 0.7108842134475708 4.542941570281982 C 1.099512577056885 3.656732559204102 1.670328617095947 2.861422538757324 2.380999326705933 2.196284294128418 C 3.091079473495483 1.531699776649475 3.940855503082275 0.9970027208328247 4.888245582580566 0.6313124299049377 C 5.834992408752441 0.2658704817295074 6.879412174224854 0.06913253664970398 7.9797043800354 0.08018791675567627 L 134.2769775390625 1.349182486534119 C 135.3232727050781 1.359695196151733 136.3345336914062 1.571814179420471 137.2676239013672 1.946391224861145 C 138.2006530761719 2.320944786071777 139.0558013916016 2.858062267303467 139.7897796630859 3.518752098083496 C 140.5239715576172 4.179615020751953 141.1371765136719 4.964318752288818 141.5858917236328 5.833924770355225 C 142.0348205566406 6.704012393951416 142.3192596435547 7.659341335296631 142.3954467773438 8.660937309265137 L 148.2053527832031 85.03339385986328 C 148.2864532470703 86.09928894042969 148.1451721191406 87.11713409423828 147.8199768066406 88.04512786865234 C 147.4945068359375 88.97395324707031 146.9847717285156 89.81278228759766 146.3294067382812 90.51959991455078 C 145.6735076904297 91.22700500488281 144.8718109130859 91.80207824707031 143.9631500244141 92.20265960693359 C 143.0538787841797 92.603515625 142.0376586914062 92.82952880859375 140.9536285400391 92.83848571777344 Z" stroke="none" fill="#707070"/>
        </g>
        <g id="Group_20" data-name="Group 20" transform="translate(16.78 29.481)">
          <g id="Line_1" data-name="Line 1" transform="translate(33.722 14.129)" fill="none">
            <path d="M.109,2.856,48.165,2.9" stroke="none"/>
            <path d="M 48.32772064208984 5.740203380584717 L 0.2174658179283142 5.718878746032715 L 2.294424302817788e-05 9.805487025005277e-06 L 48.00290679931641 0.07529172301292419 L 48.32772064208984 5.740203380584717 Z" stroke="none" fill="#707070"/>
          </g>
          <path id="Rectangle_21" data-name="Rectangle 21" d="M17.935.077a19,19,0,0,1,12.789,5,17.96,17.96,0,0,1,4.023,5.4,16.737,16.737,0,0,1,1.66,6.63,16.079,16.079,0,0,1-1.148,6.663,16.364,16.364,0,0,1-3.642,5.474,17.293,17.293,0,0,1-5.6,3.716,18.37,18.37,0,0,1-6.995,1.379A19,19,0,0,1,6.048,29.281a17.936,17.936,0,0,1-4.036-5.5A16.707,16.707,0,0,1,.42,17.073,16.07,16.07,0,0,1,1.676,10.4,16.39,16.39,0,0,1,5.4,4.994a17.333,17.333,0,0,1,5.609-3.616A18.4,18.4,0,0,1,17.935.077Z" fill="#02bfb3"/>
          <path id="Rectangle_22" data-name="Rectangle 22" d="M17.4.075a18.572,18.572,0,0,1,6.826,1.336A19.1,19.1,0,0,1,29.961,5a18.48,18.48,0,0,1,4.07,5.319,17.075,17.075,0,0,1,1.815,6.53,15.829,15.829,0,0,1-.908,6.562A15.47,15.47,0,0,1,31.574,28.8a16.046,16.046,0,0,1-5.313,3.659A17.268,17.268,0,0,1,19.52,33.82a18.56,18.56,0,0,1-6.929-1.329,19.1,19.1,0,0,1-5.815-3.653,18.458,18.458,0,0,1-4.085-5.415A17.032,17.032,0,0,1,.938,16.816a15.8,15.8,0,0,1,1.011-6.57A15.475,15.475,0,0,1,5.392,4.919,16.081,16.081,0,0,1,10.72,1.356,17.3,17.3,0,0,1,17.4.075Z" transform="translate(77.112 0.333)" fill="#07c"/>
          <path id="_2" data-name="2" d="M2.3,15.987,2.229,14.9,6.167,10.44q.691-.781,1.133-1.36t.642-1.092q.2-.513.164-1.077-.041-.647-.391-1.122T6.8,5.057Q6.228,4.8,5.539,4.8q-.733,0-1.259.288t-.789.811q-.263.521-.22,1.224l-1.469,0q-.066-1.081.4-1.9t1.33-1.267Q4.4,3.5,5.507,3.5t2.009.46q.891.457,1.431,1.23t.6,1.72q.044.678-.166,1.322T8.6,9.67q-.568.79-1.591,1.926L4.331,14.561l.006.1h5.934l.086,1.328Z" transform="translate(89.659 6.231)" fill="#fff"/>
          <g id="Glyph_check-2" data-name="Glyph / check" transform="translate(11.113 12.602)">
            <path id="Vector-2" data-name="Vector" d="M5.706,9.189a.64.64,0,0,1-.433-.168L.3,4.418a.6.6,0,0,1-.138-.19.562.562,0,0,1-.05-.216A.543.543,0,0,1,.154,3.8a.55.55,0,0,1,.127-.19.584.584,0,0,1,.2-.126A.624.624,0,0,1,.7,3.438a.644.644,0,0,1,.228.042.633.633,0,0,1,.2.126L5.663,7.8,13.411.192a.576.576,0,0,1,.195-.125A.617.617,0,0,1,13.83.026a.641.641,0,0,1,.227.042.634.634,0,0,1,.2.126A.6.6,0,0,1,14.4.383.562.562,0,0,1,14.45.6a.538.538,0,0,1-.161.4L6.129,9.021a.582.582,0,0,1-.093.073.593.593,0,0,1-.1.053.613.613,0,0,1-.111.032A.63.63,0,0,1,5.706,9.189Z" fill="#fff"/>
          </g>
        </g>
      </g>
      <g id="Glyph_bell" data-name="Glyph / bell" transform="matrix(0.966, 0.259, -0.259, 0.966, 1626.264, 526.933)">
        <path id="Vector-3" data-name="Vector" d="M6.927,35.884h31a47.542,47.542,0,0,1-1.039-9.08c-.208-4.134-.308-5.646-.569-7.813-.085-.7-.18-1.381-.287-2.035-.927-5.654-4.5-8.738-11.088-9.362a2.99,2.99,0,1,0-5.036,0C13.325,8.218,9.75,11.3,8.823,16.956c-.107.654-.2,1.331-.287,2.035-.26,2.166-.36,3.677-.569,7.812A47.543,47.543,0,0,1,6.927,35.884Zm32.422,2.99H5.506A4.921,4.921,0,0,1,1.5,40.37a1.5,1.5,0,0,1,0-2.99c2.351,0,3.063-2.342,3.485-10.727.212-4.207.315-5.758.586-8.018.09-.745.191-1.464.305-2.162,1-6.1,4.624-9.909,10.635-11.341a5.982,5.982,0,0,1,11.842,0c6.011,1.431,9.635,5.236,10.636,11.341.114.7.216,1.417.305,2.162.272,2.26.374,3.812.586,8.019.422,8.384,1.134,10.726,3.484,10.726a1.5,1.5,0,1,1,0,2.99A4.921,4.921,0,0,1,39.349,38.874Zm-22.9,2.99H28.408a5.981,5.981,0,1,1-11.961,0Z" transform="translate(0 0)" fill="#e42682"/>
      </g>
      <g id="Group_24" data-name="Group 24" transform="translate(1482.28 573.471)">
        <g id="Group_7" data-name="Group 7" transform="translate(0 0)">
          <circle id="Ellipse_2" data-name="Ellipse 2" cx="52.874" cy="52.874" r="52.874" transform="translate(17.891 89.477) rotate(-45)" fill="#fec512"/>
          <circle id="Ellipse_5" data-name="Ellipse 5" cx="52.874" cy="52.874" r="52.874" transform="translate(0 76.042) rotate(-45)" fill="#f14e98"/>
          <circle id="Ellipse_3" data-name="Ellipse 3" cx="52.874" cy="52.874" r="52.874" transform="translate(16.476 74.775) rotate(-45)" fill="#02bfb3"/>
          <circle id="Ellipse_4" data-name="Ellipse 4" cx="52.874" cy="52.874" r="52.874" transform="translate(1.774 89.477) rotate(-45)" fill="#1baaf5"/>
        </g>
        <g id="Group_6" data-name="Group 6" transform="translate(39.199 46.496)">
          <path id="Path_8" data-name="Path 8" d="M36.358-57.371V-81.818H48.165v42.575H36.829v-7.733h-.443A12.6,12.6,0,0,1,31.6-40.962a14.118,14.118,0,0,1-8.135,2.273,14.347,14.347,0,0,1-7.512-1.94A13.248,13.248,0,0,1,10.9-46.145,18.96,18.96,0,0,1,9.055-54.71V-81.818H20.863v25a8.611,8.611,0,0,0,2.023,5.959,6.884,6.884,0,0,0,5.35,2.19,8.4,8.4,0,0,0,3.991-.984,7.611,7.611,0,0,0,3.007-2.924A9.082,9.082,0,0,0,36.358-57.371Z" transform="translate(23.624 99.19)" fill="#fff"/>
          <g id="Group_5" data-name="Group 5" transform="translate(0 17.372)">
            <path id="Path_3" data-name="Path 3" d="M41.8-67.436A2.181,2.181,0,0,1,43.736-66.3a5.854,5.854,0,0,1,.708,3.114,10.452,10.452,0,0,1-1.6,5.851A18.374,18.374,0,0,1,35.9-51.015a21.673,21.673,0,0,1-10.24,2.265q-9.06,0-14.062-5.427t-5-14.675A27.309,27.309,0,0,1,9.337-80.979a22.409,22.409,0,0,1,7.6-8.918,19.106,19.106,0,0,1,10.995-3.3,11.959,11.959,0,0,1,8.777,3.256,11.828,11.828,0,0,1,3.3,8.824,15.258,15.258,0,0,1-4.672,11.183q-4.672,4.672-15.9,7.408,2.265,4.341,7.644,4.341a10.666,10.666,0,0,0,6.37-1.793,30.819,30.819,0,0,0,5.8-6.04A3.246,3.246,0,0,1,41.8-67.436ZM26.324-83.951q-3.492,0-5.9,4.058a18.915,18.915,0,0,0-2.407,9.815v.189A21.446,21.446,0,0,0,26.8-73.853,7.789,7.789,0,0,0,30-79.988a4.1,4.1,0,0,0-.991-2.878A3.462,3.462,0,0,0,26.324-83.951Z" transform="translate(-6.6 93.2)" fill="#fff"/>
          </g>
          <path id="Path_9" data-name="Path 9" d="M8.65-54.822V-97.746h11.9v42.924Zm6.008-48.457a6.44,6.44,0,0,1-4.555-1.775,5.626,5.626,0,0,1-1.9-4.262,5.6,5.6,0,0,1,1.9-4.234,6.406,6.406,0,0,1,4.527-1.775,6.426,6.426,0,0,1,4.569,1.775,5.615,5.615,0,0,1,1.886,4.234,5.645,5.645,0,0,1-1.886,4.262A6.391,6.391,0,0,1,14.658-103.279Z" transform="translate(67.958 115.323)" fill="#fff"/>
        </g>
      </g>
      <g id="Group_15" data-name="Group 15" transform="translate(1708.483 502.073)">
        <g id="Rectangle_17" data-name="Rectangle 17" fill="rgba(255,255,255,0.06)" opacity="0.29">
          <path d="M7.747.237l85,2.6a6.491,6.491,0,0,1,2.729.7A7.321,7.321,0,0,1,97.7,5.28,8.243,8.243,0,0,1,99.19,7.807a8.73,8.73,0,0,1,.548,3.055V91.441a8.7,8.7,0,0,1-.548,3.052A8.175,8.175,0,0,1,97.7,97.01a7.254,7.254,0,0,1-2.222,1.729,6.461,6.461,0,0,1-2.729.681l-85,2.06a7.2,7.2,0,0,1-3.008-.574A7.506,7.506,0,0,1,2.276,99.2,8.061,8.061,0,0,1,.611,96.614,8.564,8.564,0,0,1,0,93.414V8.254a8.534,8.534,0,0,1,.611-3.2A7.992,7.992,0,0,1,2.276,2.484,7.44,7.44,0,0,1,4.739.792,7.176,7.176,0,0,1,7.747.237Z" stroke="none"/>
          <path d="M 92.74478912353516 96.48018646240234 C 93.34946441650391 96.466552734375 93.92555999755859 96.31624603271484 94.44948577880859 96.05638885498047 C 94.97308349609375 95.79667663574219 95.44464111328125 95.42751312255859 95.84062194824219 94.97590637207031 C 96.23640441894531 94.52448272705078 96.55673980712891 93.99060821533203 96.778076171875 93.40116119384766 C 96.99938201904297 92.81186676025391 97.12181091308594 92.16689300537109 97.12181091308594 91.49301910400391 L 97.12181091308594 10.79429149627686 C 97.12181091308594 10.1204195022583 96.99938201904297 9.474662780761719 96.778076171875 8.883953094482422 C 96.55673980712891 8.293095588684082 96.23640441894531 7.757179737091064 95.84062194824219 7.303241729736328 C 95.44464111328125 6.849098205566406 94.97308349609375 6.4769287109375 94.44948577880859 6.213882923126221 C 93.92555999755859 5.950681209564209 93.34946441650391 5.796701431274414 92.74478912353516 5.779201984405518 L 7.747205257415771 3.31938362121582 C 7.082292079925537 3.300141572952271 6.447924137115479 3.425915241241455 5.870271682739258 3.669814109802246 C 5.292257785797119 3.913865804672241 4.77109956741333 4.276158809661865 4.33304500579834 4.729690551757812 C 3.894781827926636 5.183436393737793 3.539777755737305 5.728423595428467 3.294307231903076 6.337522029876709 C 3.048771858215332 6.946782112121582 2.912885665893555 7.620041370391846 2.912885665893555 8.330051422119141 L 2.912885665893555 93.35643768310547 C 2.912885665893555 94.06645202636719 3.048771858215332 94.74059295654297 3.294307231903076 95.35140228271484 C 3.539777755737305 95.96206665039062 3.894781827926636 96.50932312011719 4.33304500579834 96.96586608886719 C 4.77109956741333 97.42218017578125 5.292257785797119 97.78781127929688 5.870271682739258 98.03554534912109 C 6.447924137115479 98.28312683105469 7.082292079925537 98.41294860839844 7.747205257415771 98.39793395996094 L 92.74478912353516 96.48018646240234 M 92.74478912353516 99.42054748535156 L 7.747205257415771 101.4802093505859 C 6.681414127349854 101.5060348510742 5.664926052093506 101.3004150390625 4.739404678344727 100.9061279296875 C 3.812956094741821 100.5114364624023 2.977841377258301 99.92778778076172 2.27591872215271 99.19824981689453 C 1.573464035987854 98.46816253662109 1.004607200622559 97.59217834472656 0.6112805008888245 96.61368560791016 C 0.2177867293357849 95.63479614257812 0.000121397795737721 94.55367279052734 0.000121397795737721 93.41405487060547 L 0.000121397795737721 8.253861427307129 C 0.000121397795737721 7.114236831665039 0.2177867293357849 6.034511089324951 0.6112805604934692 5.058120250701904 C 1.004607200622559 4.082144260406494 1.573464035987854 3.209785223007202 2.27591872215271 2.484175205230713 C 2.977841377258301 1.759116053581238 3.812956094741821 1.180792689323425 4.739404678344727 0.7920168042182922 C 5.664926052093506 0.4036301374435425 6.681414127349854 0.2044885158538818 7.747205257415771 0.237111821770668 L 92.74478912353516 2.838842630386353 C 93.71361541748047 2.868497848510742 94.63558959960938 3.115890264511108 95.47332763671875 3.537587881088257 C 96.31027984619141 3.958884000778198 97.06330108642578 4.554232597351074 97.69520568847656 5.280477523803711 C 98.32665252685547 6.006201267242432 98.83733367919922 6.862832069396973 99.19007110595703 7.807504177093506 C 99.54267883300781 8.751796722412109 99.73758697509766 9.78439998626709 99.73758697509766 10.86271286010742 L 99.73758697509766 91.4412841796875 C 99.73758697509766 92.51959228515625 99.54267883300781 93.55094909667969 99.19007110595703 94.49298858642578 C 98.83733367919922 95.4354248046875 98.32665252685547 96.28879547119141 97.69520568847656 97.01048278808594 C 97.06330108642578 97.73269653320312 96.31027984619141 98.32324981689453 95.47332763671875 98.73920440673828 C 94.63558959960938 99.15556335449219 93.71361541748047 99.39707183837891 92.74478912353516 99.42054748535156 Z" stroke="none" fill="#707070"/>
        </g>
        <path id="Ellipse_8" data-name="Ellipse 8" d="M37,.93A33.729,33.729,0,0,1,51,4.366a36.65,36.65,0,0,1,11.275,8.621A40.272,40.272,0,0,1,69.8,25.471a43.029,43.029,0,0,1,0,30.231,39.936,39.936,0,0,1-7.522,12.436A36.317,36.317,0,0,1,51,76.687a33.611,33.611,0,0,1-28.227.481,36.345,36.345,0,0,1-11.783-8.4,40.062,40.062,0,0,1-8.031-12.71,43.008,43.008,0,0,1,0-31.372,39.721,39.721,0,0,1,8.031-12.659A36.023,36.023,0,0,1,22.777,3.705,33.456,33.456,0,0,1,37,.93Z" transform="translate(13.834 10.514)" fill="#4a75e7"/>
        <g id="Group_10" data-name="Group 10" transform="translate(26.962 22.043)">
          <g id="Group_1342" data-name="Group 1342">
            <g id="Group_1" data-name="Group 1">
              <path id="Path_1" data-name="Path 1" d="M22.806,0l3.105,5.448-22.73.043L0,.024Z" transform="translate(26.015 39.884)" fill="#fff"/>
              <path id="Path_2" data-name="Path 2" d="M22.712,17.09l3.351,5.455L0,22.61,12.961.027l3.255,5.509L9.7,17.1Z" transform="translate(0 22.82)" fill="#fff"/>
              <path id="Path_3-2" data-name="Path 3" d="M0,19.941l3.28,5.723,11.3-20.316L11.4.069Z" transform="translate(14.617)" fill="#fff"/>
              <path id="Path_4" data-name="Path 4" d="M3.241.012,0,5.819,9.591,22.83l6.577,0Z" transform="translate(24.335 14.238)" fill="#fff"/>
            </g>
          </g>
        </g>
      </g>
    </g>
  </g>
</svg>
