<svg xmlns="http://www.w3.org/2000/svg" xmlns:xlink="http://www.w3.org/1999/xlink" width="872" height="855" viewBox="0 0 872 855">
  <defs>
    <clipPath id="clip-Artboard_2">
      <rect width="872" height="855"/>
    </clipPath>
  </defs>
  <g id="Artboard_2" data-name="Artboard – 2" clip-path="url(#clip-Artboard_2)">
    <path id="Path_15" data-name="Path 15" d="M370.83,0c204.8,0,370.83,166.026,370.83,370.83S575.634,741.66,370.83,741.66,0,575.634,0,370.83,166.026,0,370.83,0Z" transform="translate(-25.692 479.055) rotate(-45)" fill="#fec512"/>
    <path id="Path_16" data-name="Path 16" d="M370.83,0c204.8,0,370.83,166.026,370.83,370.83S575.634,741.66,370.83,741.66,0,575.634,0,370.83,166.026,0,370.83,0Z" transform="translate(-151.173 384.835) rotate(-45)" fill="#f14e98"/>
    <path id="Path_17" data-name="Path 17" d="M370.83,0c204.8,0,370.83,166.026,370.83,370.83S575.634,741.66,370.83,741.66,0,575.634,0,370.83,166.026,0,370.83,0Z" transform="translate(-35.62 375.945) rotate(-45)" fill="#02bfb3"/>
    <path id="Path_18" data-name="Path 18" d="M370.83,0c204.8,0,370.83,166.026,370.83,370.83S575.634,741.66,370.83,741.66,0,575.634,0,370.83,166.026,0,370.83,0Z" transform="translate(-138.73 479.055) rotate(-45)" fill="#1baaf5"/>
    <path id="Path_19" data-name="Path 19" d="M200.538,89.642V-81.818h82.814v298.6H203.843V162.541h-3.11A88.353,88.353,0,0,1,167.2,204.726q-23.425,15.941-57.056,15.941-29.937,0-52.682-13.608T21.983,168.373Q9.25,143.3,9.055,108.3V-81.818H91.869V93.529q.194,26.438,14.191,41.8t37.519,15.357a58.9,58.9,0,0,0,27.993-6.9,53.379,53.379,0,0,0,21.092-20.509Q200.733,109.665,200.538,89.642Z" transform="translate(343.888 381.269)" fill="#fff"/>
    <path id="Path_20" data-name="Path 20" d="M253.485,87.5q8.6,0,13.569,7.943t4.964,21.842q0,23.828-11.252,41.037a128.864,128.864,0,0,1-48.649,44.347Q182,218.551,140.3,218.551q-63.542,0-98.622-38.059T6.6,77.568Q6.6,31.9,25.795-7.485T79.077-70.034Q113.164-93.2,156.187-93.2q38.39,0,61.556,22.835T240.91-8.478q0,45.67-32.764,78.434T96.617,121.915q15.885,30.447,53.613,30.447,27.138,0,44.678-12.576t40.706-42.361Q243.557,87.5,253.485,87.5ZM144.935-28.335q-24.49,0-41.368,28.461T86.689,68.963v1.324q39.052-9.267,61.556-27.8t22.5-43.023q0-12.576-6.95-20.188T144.935-28.335Z" transform="translate(117.147 392.651)" fill="#fff"/>
    <path id="Path_21" data-name="Path 21" d="M11.339,309V7.956H94.832V309ZM53.477-30.851A45.168,45.168,0,0,1,21.531-43.3Q8.2-55.742,8.2-73.185q0-17.247,13.327-29.693a44.925,44.925,0,0,1,31.751-12.445q18.815,0,32.045,12.445T98.555-73.185q0,17.443-13.229,29.889A44.826,44.826,0,0,1,53.477-30.851Z" transform="translate(649.7 292.934)" fill="#fff"/>
  </g>
</svg>
