<svg xmlns="http://www.w3.org/2000/svg" xmlns:xlink="http://www.w3.org/1999/xlink" width="212" height="106" viewBox="0 0 212 106">
  <defs>
    <clipPath id="clip-Icons">
      <rect width="212" height="106"/>
    </clipPath>
  </defs>
  <g id="Icons" clip-path="url(#clip-Icons)">
    <rect width="212" height="106" fill="#e2e7f1"/>
    <g id="Glyph_starFilled" data-name="Glyph / starFilled" transform="matrix(0.966, -0.259, 0.259, 0.966, 76.025, 37.025)">
      <path id="Vector" d="M6,0a.859.859,0,0,0-.792.511L3.878,3.435.75,3.881a.879.879,0,0,0-.5,1.487L2.567,7.7,2,10.972A.877.877,0,0,0,2.864,12a.862.862,0,0,0,.429-.116L6,10.342l2.707,1.542A.862.862,0,0,0,9.136,12,.877.877,0,0,0,10,10.972L9.433,7.7l2.312-2.336a.879.879,0,0,0-.5-1.487L8.122,3.435,6.792.511A.859.859,0,0,0,6,0Z" transform="translate(2 2)" fill="#343741"/>
    </g>
    <g id="Glyph_starEmptySpace" data-name="Glyph / starEmptySpace" transform="matrix(0.966, -0.259, 0.259, 0.966, 37.388, 47.377)">
      <path id="Vector-2" data-name="Vector" d="M6,0a.859.859,0,0,0-.792.511L3.878,3.435.75,3.881a.879.879,0,0,0-.5,1.487L2.567,7.7,2,10.972A.877.877,0,0,0,2.864,12a.862.862,0,0,0,.429-.116L6,10.342l2.707,1.542A.862.862,0,0,0,9.136,12,.877.877,0,0,0,10,10.972L9.433,7.7l2.312-2.336a.879.879,0,0,0-.5-1.487L8.122,3.435,6.792.511A.859.859,0,0,0,6,0ZM6,1a.1.1,0,0,1,.1.069L7.371,3.853l.162.356.387.055,2.978.426a.108.108,0,0,1,.094.08.116.116,0,0,1-.029.126l-2.2,2.226L8.5,7.382l.063.361L9.1,10.856a.109.109,0,0,1-.023.1A.127.127,0,0,1,8.987,11a.106.106,0,0,1-.055-.016L6.354,9.515,6,9.314l-.354.2L3.067,10.984A.1.1,0,0,1,3.013,11a.127.127,0,0,1-.091-.046.112.112,0,0,1-.024-.1l.536-3.113L3.5,7.382l-.259-.261-2.2-2.226a.116.116,0,0,1-.029-.126.108.108,0,0,1,.094-.08L4.08,4.264l.387-.055.162-.356L5.9,1.067A.1.1,0,0,1,6,1Z" transform="translate(0 2)" fill="#343741"/>
    </g>
    <g id="Glyph_starEmpty" data-name="Glyph / starEmpty" transform="matrix(0.966, -0.259, 0.259, 0.966, -1.249, 57.73)">
      <path id="Vector-3" data-name="Vector" d="M6,0a.859.859,0,0,0-.792.511L3.878,3.435.75,3.881a.879.879,0,0,0-.5,1.487L2.567,7.7,2,10.972A.877.877,0,0,0,2.864,12a.862.862,0,0,0,.429-.116L6,10.342l2.707,1.542A.862.862,0,0,0,9.136,12,.877.877,0,0,0,10,10.972L9.433,7.7l2.312-2.336a.879.879,0,0,0-.5-1.487L8.122,3.435,6.792.511A.859.859,0,0,0,6,0ZM6,1a.1.1,0,0,1,.1.069L7.371,3.853l.162.356.387.055,2.978.426a.108.108,0,0,1,.094.08.116.116,0,0,1-.029.126l-2.2,2.226L8.5,7.382l.063.361L9.1,10.856a.109.109,0,0,1-.023.1A.127.127,0,0,1,8.987,11a.106.106,0,0,1-.055-.016L6.354,9.515,6,9.314l-.354.2L3.067,10.984A.1.1,0,0,1,3.013,11a.127.127,0,0,1-.091-.046.112.112,0,0,1-.024-.1l.536-3.113L3.5,7.382l-.259-.261-2.2-2.226a.116.116,0,0,1-.029-.126.108.108,0,0,1,.094-.08L4.08,4.264l.387-.055.162-.356L5.9,1.067A.1.1,0,0,1,6,1Z" transform="translate(2 2)" fill="#343741"/>
    </g>
    <g id="Glyph_shard" data-name="Glyph / shard" transform="matrix(0.966, -0.259, 0.259, 0.966, 65.672, -1.612)">
      <path id="Vector-4" data-name="Vector" d="M2.945,7l6.08,2.027L7,2.945,1.425,1.425ZM0,0,7.778,2.121l2.828,8.485L2.121,7.778Z" transform="translate(8 0) rotate(45)" fill="#343741"/>
    </g>
    <g id="Glyph_search" data-name="Glyph / search" transform="matrix(0.966, -0.259, 0.259, 0.966, 27.036, 8.74)">
      <g id="Group">
        <path id="Vector-5" data-name="Vector" d="M11.271,11.978l3.872,3.873a.5.5,0,0,0,.708-.708l-3.565-3.564A7,7,0,1,0,6.995,14a.5.5,0,0,0,0-1,6,6,0,1,1,4.242-1.757.5.5,0,0,0,0,.707Z" transform="translate(0)" fill="#343741"/>
      </g>
    </g>
    <g id="Glyph_scale" data-name="Glyph / scale" transform="matrix(0.966, -0.259, 0.259, 0.966, -11.602, 19.093)">
      <path id="Vector-6" data-name="Vector" d="M8.5,8a.5.5,0,1,1-.5.5A.5.5,0,0,1,8.5,8Zm-2,0a.5.5,0,1,1-.5.5A.5.5,0,0,1,6.5,8Zm-2,0a.5.5,0,1,1-.5.5A.5.5,0,0,1,4.5,8Zm4-2a.5.5,0,1,1-.5.5A.5.5,0,0,1,8.5,6Zm-2,0a.5.5,0,1,1-.5.5A.5.5,0,0,1,6.5,6Zm2-1A.5.5,0,1,1,9,4.5.5.5,0,0,1,8.5,5Zm0-3a.5.5,0,1,1-.5.5A.5.5,0,0,1,8.5,2Zm-2,2a.5.5,0,1,1-.5.5A.5.5,0,0,1,6.5,4Zm-2,0a.5.5,0,1,1-.5.5A.5.5,0,0,1,4.5,4Zm0,2a.5.5,0,1,1-.5.5A.5.5,0,0,1,4.5,6Zm-2,2a.5.5,0,1,1-.5.5A.5.5,0,0,1,2.5,8ZM.5,8a.5.5,0,1,1-.5.5A.5.5,0,0,1,.5,8Zm2-2a.5.5,0,1,1-.5.5A.5.5,0,0,1,2.5,6Zm6-6A.5.5,0,1,1,8,.5.5.5,0,0,1,8.5,0Zm-2,2a.5.5,0,1,1-.5.5A.5.5,0,0,1,6.5,2Z" transform="translate(4 4)" fill="#343741"/>
    </g>
    <g id="Glyph_symlink" data-name="Glyph / symlink" transform="matrix(0.966, -0.259, 0.259, 0.966, 163.652, 54.956)">
      <path id="Vector-7" data-name="Vector" d="M9.8,0H1A1,1,0,0,0,0,1V9L1,8V1H9V4.5a.5.5,0,0,0,.5.5H13V15H1V14a3.5,3.5,0,0,1,3.5-3.5H7V13l3-3L7,7V9.5H4.5A4.5,4.5,0,0,0,0,14v1a1,1,0,0,0,1,1H13a1,1,0,0,0,1-1V4.429a1,1,0,0,0-.274-.689L10.526.312A1,1,0,0,0,9.8,0Z" transform="translate(1)" fill="#343741"/>
    </g>
    <g id="Glyph_starMinusEmpty" data-name="Glyph / starMinusEmpty" transform="matrix(0.966, -0.259, 0.259, 0.966, 153.299, 16.319)">
      <path id="Vector-8" data-name="Vector" d="M6,0a.859.859,0,0,0-.792.511L3.878,3.435.75,3.881a.879.879,0,0,0-.5,1.487L2.567,7.7,2,10.972A.877.877,0,0,0,2.864,12a.862.862,0,0,0,.429-.116L6,10.342l2.707,1.542A.862.862,0,0,0,9.136,12,.877.877,0,0,0,10,10.972L9.433,7.7l2.312-2.336a.879.879,0,0,0-.5-1.487L8.122,3.435,6.792.511A.859.859,0,0,0,6,0ZM6,1a.1.1,0,0,1,.1.069L7.371,3.853l.162.356.387.055,2.978.426a.108.108,0,0,1,.094.08.116.116,0,0,1-.029.126l-2.2,2.226L8.5,7.382l.063.361L9.1,10.856a.109.109,0,0,1-.023.1A.127.127,0,0,1,8.987,11a.106.106,0,0,1-.055-.016L6.354,9.515,6,9.314l-.354.2L3.067,10.984A.1.1,0,0,1,3.013,11a.127.127,0,0,1-.091-.046.112.112,0,0,1-.024-.1l.536-3.113L3.5,7.382l-.259-.261-2.2-2.226a.116.116,0,0,1-.029-.126.108.108,0,0,1,.094-.08L4.08,4.264l.387-.055.162-.356L5.9,1.067A.1.1,0,0,1,6,1ZM16,8V9H11V8Z" transform="translate(0 2)" fill="#343741"/>
    </g>
    <g id="Glyph_starFilledSpace" data-name="Glyph / starFilledSpace" transform="matrix(0.966, -0.259, 0.259, 0.966, 114.662, 26.672)">
      <path id="Vector-9" data-name="Vector" d="M6,0a.859.859,0,0,0-.792.511L3.878,3.435.75,3.881a.879.879,0,0,0-.5,1.487L2.567,7.7,2,10.972A.877.877,0,0,0,2.864,12a.862.862,0,0,0,.429-.116L6,10.342l2.707,1.542A.862.862,0,0,0,9.136,12,.877.877,0,0,0,10,10.972L9.433,7.7l2.312-2.336a.879.879,0,0,0-.5-1.487L8.122,3.435,6.792.511A.859.859,0,0,0,6,0Z" transform="translate(0 2)" fill="#343741"/>
    </g>
    <g id="Glyph_share" data-name="Glyph / share" transform="matrix(0.966, -0.259, 0.259, 0.966, 104.31, -11.965)">
      <path id="Vector-10" data-name="Vector" d="M1,6.811v6.378a.955.955,0,0,0,.992.9H9.008a.955.955,0,0,0,.992-.9V6.811a.955.955,0,0,0-.992-.9H1.992A.955.955,0,0,0,1,6.811ZM4,5v.909H7V5H9.008A1.913,1.913,0,0,1,11,6.811v6.378A1.913,1.913,0,0,1,9.008,15H1.992A1.913,1.913,0,0,1,0,13.189V6.811A1.913,1.913,0,0,1,1.992,5ZM6,1.448A.506.506,0,0,1,6,1.5v8a.5.5,0,0,1-1,0v-8q0-.009,0-.017L3.181,3.394a.52.52,0,0,1-.771,0,.617.617,0,0,1,0-.829L4.36.516a1.552,1.552,0,0,1,2.311,0l1.95,2.05a.617.617,0,0,1,0,.829.52.52,0,0,1-.771,0Z" transform="translate(2 0)" fill="#343741"/>
    </g>
    <g id="Glyph_tableOfContents" data-name="Glyph / tableOfContents" transform="matrix(0.966, -0.259, 0.259, 0.966, 202.289, 44.603)">
      <path id="Vector-11" data-name="Vector" d="M1,1V15H15V1ZM0,0H16V16H0ZM9,1V15h1V1ZM3,3.5H7v-1H3Zm0,3H7v-1H3Zm0,3H7v-1H3Z" fill="#343741"/>
    </g>
    <g id="Glyph_submodule" data-name="Glyph / submodule" transform="matrix(0.966, -0.259, 0.259, 0.966, 125.015, 65.309)">
      <path id="Vector-12" data-name="Vector" d="M6,1H1V13H4V6A1,1,0,0,1,5,5h5a1,1,0,0,1,1,1V7h4V3H7A.923.923,0,0,1,6,2ZM16,7v6a1,1,0,0,1-1,1H1a1,1,0,0,1-1-1V1A1,1,0,0,1,1,0H6.25A.75.75,0,0,1,7,.75c0,.028,0,.1,0,.206H7A9.735,9.735,0,0,0,7,2h8a1,1,0,0,1,1,1ZM15,8H11a1,1,0,0,1-1-1V6H5v7H15ZM2,3.5A.5.5,0,0,1,2.5,3h2a.5.5,0,0,1,0,1h-2A.5.5,0,0,1,2,3.5ZM6.5,8a.5.5,0,0,0,0,1h2a.5.5,0,0,0,0-1Z" transform="translate(0 1)" fill="#343741"/>
    </g>
    <g id="Glyph_string" data-name="Glyph / string" transform="matrix(0.966, -0.259, 0.259, 0.966, 86.378, 75.662)">
      <path id="Vector-13" data-name="Vector" d="M4.3,0,3.93,2.1H5.281L4.961,3.93H3.609L2.953,7.813a1.041,1.041,0,0,0,.05.6q.107.2.528.219a6.041,6.041,0,0,0,.672-.04L4.016,10.5a4.161,4.161,0,0,1-1.383.195,2.278,2.278,0,0,1-1.79-.7A2.4,2.4,0,0,1,.359,8.125l.688-4.2H0L.313,2.1H1.359L1.727,0Z" transform="translate(5 3)" fill="#343741"/>
    </g>
    <g id="Glyph_storage" data-name="Glyph / storage" transform="matrix(0.966, -0.259, 0.259, 0.966, 47.741, 86.015)">
      <g id="Group-2" data-name="Group">
        <path id="Vector-14" data-name="Vector" d="M2,6A1,1,0,0,1,1,5V2A1,1,0,0,1,2,1H14a1,1,0,0,1,1,1V5a1,1,0,0,1-1,1ZM15,8v3a1,1,0,0,1-1,1H2a1,1,0,0,1-1-1V8A1,1,0,0,1,2,7H14A1,1,0,0,1,15,8Zm1-3V2a2,2,0,0,0-2-2H2A2,2,0,0,0,0,2V5A1.988,1.988,0,0,0,.69,6.5,1.988,1.988,0,0,0,0,8v3a2,2,0,0,0,2,2H14a2,2,0,0,0,2-2V8a1.991,1.991,0,0,0-.689-1.5A1.991,1.991,0,0,0,16,5Z" transform="translate(0 2)" fill="#343741"/>
        <path id="Vector-15" data-name="Vector" d="M3,1.5A1.5,1.5,0,1,1,1.5,0,1.5,1.5,0,0,1,3,1.5Z" transform="translate(3 10)" fill="#343741"/>
        <path id="Vector-16" data-name="Vector" d="M3,1.5A1.5,1.5,0,1,1,1.5,0,1.5,1.5,0,0,1,3,1.5Z" transform="translate(3 4)" fill="#343741"/>
        <path id="Vector-17" data-name="Vector" d="M0,0H1V3H0Z" transform="translate(12 10)" fill="#343741"/>
        <path id="Vector-18" data-name="Vector" d="M0,0H1V3H0Z" transform="translate(10 10)" fill="#343741"/>
        <path id="Vector-19" data-name="Vector" d="M0,0H1V3H0Z" transform="translate(12 4)" fill="#343741"/>
        <path id="Vector-20" data-name="Vector" d="M0,0H1V3H0Z" transform="translate(10 4)" fill="#343741"/>
      </g>
    </g>
    <g id="Glyph_stopFilled" data-name="Glyph / stopFilled" transform="matrix(0.966, -0.259, 0.259, 0.966, 9.104, 96.367)">
      <path id="Vector-21" data-name="Vector" d="M2,0h8a2,2,0,0,1,2,2v8a2,2,0,0,1-2,2H2a2,2,0,0,1-2-2V2A2,2,0,0,1,2,0Z" transform="translate(2 2)" fill="#343741"/>
    </g>
    <g id="Glyph_starMinusFilled" data-name="Glyph / starMinusFilled" transform="matrix(0.966, -0.259, 0.259, 0.966, 191.937, 5.966)">
      <path id="Vector-22" data-name="Vector" d="M6,0a.859.859,0,0,1,.792.511l1.33,2.924,3.127.446a.879.879,0,0,1,.5,1.487L9.433,7.7,10,10.972A.877.877,0,0,1,9.136,12a.862.862,0,0,1-.429-.116L6,10.342,3.293,11.884A.862.862,0,0,1,2.864,12,.877.877,0,0,1,2,10.972L2.567,7.7.254,5.368a.879.879,0,0,1,.5-1.487l3.127-.446L5.208.511A.859.859,0,0,1,6,0ZM16,8V9H11V8Z" transform="translate(0 2)" fill="#343741"/>
    </g>
    <g id="Glyph_cloudStormy" data-name="Glyph / cloudStormy" transform="matrix(0.966, -0.259, 0.259, 0.966, 174.005, 93.593)">
      <path id="Vector-23" data-name="Vector" d="M7.421,4.931a.5.5,0,1,1-.87.491,3,3,0,1,0-4.43,3.918.5.5,0,0,1-.627.779A4,4,0,0,1,5.467,3.278L5.5,3.3V3.28a5.5,5.5,0,1,1,7,7.357.5.5,0,0,1-.358-.934A4.5,4.5,0,1,0,6.373,3.78a4.021,4.021,0,0,1,1.05,1.15ZM9.6,11a.545.545,0,0,1,.36,1L5.28,15.885a.472.472,0,0,1-.642-.689L7.717,12l-2.6,0a.545.545,0,0,1-.36-1l4.68-3.881a.472.472,0,0,1,.642.689L7,11Z" transform="translate(0 0)" fill="#343741"/>
    </g>
    <g id="Glyph_cloudDrizzle" data-name="Glyph / cloudDrizzle" transform="matrix(0.966, -0.259, 0.259, 0.966, 135.368, 103.946)">
      <path id="Vector-24" data-name="Vector" d="M6.348,3.761A4,4,0,0,1,8,7,.5.5,0,0,1,7,7,3,3,0,1,0,2.122,9.339a.5.5,0,0,1-.627.779A4,4,0,0,1,5.467,3.278a5.5,5.5,0,0,1,10.1,4.372.5.5,0,0,1-.92-.391,4.5,4.5,0,1,0-8.3-3.5ZM4.739,8.7a.5.5,0,1,1,.774.633L4.047,11.121a.5.5,0,1,1-.774-.633ZM1.618,12.343a.5.5,0,0,1,.774.633L.887,14.817a.5.5,0,0,1-.774-.633ZM9.239,8.7a.5.5,0,1,1,.774.633L8.547,11.121a.5.5,0,1,1-.774-.633ZM6.118,12.343a.5.5,0,0,1,.774.633l-1.505,1.84a.5.5,0,0,1-.774-.633ZM13.739,8.7a.5.5,0,1,1,.774.633l-1.466,1.792a.5.5,0,1,1-.774-.633Zm-3.121,3.647a.5.5,0,0,1,.774.633l-1.505,1.84a.5.5,0,0,1-.774-.633Z" transform="translate(0 0)" fill="#343741"/>
    </g>
  </g>
</svg>
